<?xml version="1.0" standalone="no"?>
<!DOCTYPE svg PUBLIC "-//W3C//DTD SVG 20010904//EN"
 "http://www.w3.org/TR/2001/REC-SVG-20010904/DTD/svg10.dtd">
<svg version="1.0" xmlns="http://www.w3.org/2000/svg"
 width="1024.000000pt" height="1024.000000pt" viewBox="0 0 1024.000000 1024.000000"
 preserveAspectRatio="xMidYMid meet">
<metadata>
Created by potrace 1.16, written by Peter Selinger 2001-2019
</metadata>
<g transform="translate(0.000000,1024.000000) scale(0.100000,-0.100000)"
fill="#000000" stroke="none">
<path d="M5150 8231 c-30 -5 -82 -11 -115 -15 -105 -11 -137 -17 -275 -53
-313 -80 -568 -194 -865 -388 -208 -135 -479 -386 -656 -608 -131 -163 -145
-183 -229 -332 -172 -303 -295 -696 -330 -1055 -17 -176 -19 -502 -4 -635 68
-585 297 -1064 737 -1536 208 -224 429 -394 707 -545 81 -44 260 -124 325
-144 22 -7 52 -19 67 -26 48 -25 361 -105 488 -125 208 -34 316 -41 520 -36
195 6 257 14 505 72 79 18 392 115 475 147 390 152 752 411 1078 770 138 153
172 200 299 408 147 243 205 373 272 610 138 490 135 943 -10 1471 -94 342
-229 620 -443 909 -78 105 -381 414 -491 501 -270 213 -619 395 -945 493 -158
48 -412 100 -535 111 -98 9 -525 13 -575 6z m442 -201 c40 -5 134 -17 208 -25
631 -74 1299 -450 1704 -959 142 -178 290 -440 386 -680 121 -304 197 -779
170 -1059 -32 -337 -35 -352 -113 -577 -117 -333 -211 -510 -404 -762 -265
-348 -661 -663 -1018 -814 -255 -107 -620 -214 -790 -232 -95 -10 -538 -9
-600 1 -97 16 -331 67 -420 93 -110 32 -383 141 -479 192 -549 294 -977 761
-1202 1312 -110 271 -142 398 -164 666 -59 712 116 1343 514 1853 99 128 298
329 426 432 202 162 440 306 660 396 141 59 417 130 570 148 30 3 87 10 125
14 102 12 343 13 427 1z"/>
<path d="M5848 7635 c-2 -2 -25 -5 -53 -8 -65 -7 -109 -23 -170 -62 -110 -70
-172 -175 -181 -308 -11 -173 79 -327 234 -400 61 -29 76 -32 162 -32 82 0
103 4 153 27 156 73 258 246 243 412 -16 179 -160 337 -330 364 -31 5 -57 8
-58 7z"/>
<path d="M4480 7167 c-70 -39 -327 -270 -897 -809 -29 -28 -53 -55 -53 -62 1
-18 37 -93 50 -101 18 -11 274 189 385 302 55 56 197 192 315 304 197 185 215
200 224 180 14 -32 -19 -181 -56 -254 -17 -34 -55 -96 -84 -139 -30 -42 -54
-80 -54 -85 0 -4 30 -28 66 -52 88 -59 98 -76 80 -128 -8 -21 -50 -110 -95
-197 -55 -107 -81 -169 -81 -192 0 -19 5 -34 10 -34 23 0 168 117 336 270 33
30 83 74 111 97 l51 42 33 -72 c31 -65 34 -81 33 -157 0 -96 -19 -159 -89
-300 -59 -120 -94 -211 -111 -291 -18 -87 -12 -118 22 -111 13 2 27 8 30 13 8
13 24 11 24 -2 0 -7 -45 -58 -100 -114 -104 -105 -119 -134 -79 -155 16 -9 29
-7 62 10 98 51 346 243 500 387 43 40 124 107 179 149 56 41 138 112 182 157
45 45 122 116 171 157 50 41 136 118 192 171 56 53 116 107 132 119 28 19 32
20 37 5 4 -9 4 -40 0 -69 -21 -179 -123 -344 -291 -471 -73 -55 -76 -58 -59
-76 9 -10 25 -21 35 -24 41 -13 18 -57 -116 -219 -65 -78 -134 -190 -150 -243
-21 -72 103 33 317 268 70 77 111 113 145 129 27 12 80 37 118 56 113 55 133
46 69 -32 -24 -30 -44 -57 -44 -59 0 -15 23 -1 47 27 75 88 164 175 221 215
35 25 64 44 66 42 2 -2 23 -32 48 -65 48 -67 85 -101 163 -154 279 -189 342
-230 356 -230 12 0 18 12 22 42 7 52 32 77 124 122 40 20 74 40 77 44 3 5 -23
27 -57 50 -71 47 -399 325 -501 425 -57 55 -75 67 -102 67 -34 0 -57 15 -149
101 -27 26 -68 61 -90 80 -22 18 -72 63 -111 100 -109 104 -130 103 -268 -17
-215 -186 -226 -195 -249 -182 -55 29 -188 139 -319 265 -79 76 -158 149 -176
161 -18 13 -57 57 -86 97 -30 40 -87 101 -128 135 -40 35 -133 119 -205 187
-76 71 -145 128 -163 133 -23 7 -39 4 -70 -13z"/>
<path d="M6372 6840 c-47 -11 -58 -24 -45 -53 8 -18 27 -28 75 -41 52 -15 71
-27 109 -67 26 -27 53 -49 59 -49 7 0 36 22 65 49 38 36 66 53 110 66 33 9 73
24 89 32 l30 16 -28 23 c-24 21 -37 24 -108 24 -78 0 -81 -1 -114 -34 l-33
-33 -22 23 c-45 48 -107 63 -187 44z"/>
<path d="M6764 6581 c-58 -25 -41 -60 43 -90 54 -19 79 -36 121 -80 l53 -56
52 57 c60 65 74 73 144 83 30 4 58 14 68 25 16 17 15 20 -5 40 -20 20 -30 22
-110 18 -73 -2 -94 -7 -119 -26 l-31 -23 -35 27 c-27 20 -49 27 -97 30 -35 2
-73 0 -84 -5z"/>
<path d="M3346 6485 c-8 -8 -22 -41 -31 -73 -46 -167 -91 -248 -190 -341 -36
-33 -65 -67 -65 -75 0 -36 70 -57 124 -36 16 6 27 6 31 -1 8 -12 -103 -128
-177 -186 -63 -48 -70 -64 -36 -87 42 -30 128 -13 183 36 41 35 42 33 14 -27
-22 -47 -186 -220 -219 -230 -25 -8 -25 -33 0 -65 17 -22 26 -25 76 -23 37 1
74 11 106 26 33 16 48 20 48 11 0 -34 -168 -245 -217 -272 -13 -8 -12 -15 9
-58 l25 -49 49 1 c60 2 118 29 175 84 23 22 44 40 46 40 1 0 3 -94 3 -210 l0
-210 -105 0 c-67 0 -105 -4 -105 -10 0 -25 33 -72 57 -81 24 -9 4567 -12 4624
-3 18 4 29 14 37 38 21 56 21 56 -103 56 l-115 0 0 215 c0 118 3 215 8 215 4
0 17 -16 29 -35 12 -18 43 -46 68 -60 43 -26 141 -47 175 -38 16 4 67 81 59
87 -80 56 -117 88 -162 144 -51 62 -101 142 -93 149 1 2 17 -4 34 -12 17 -9
55 -21 85 -27 47 -10 61 -9 100 6 56 21 65 40 29 63 -109 69 -220 183 -254
262 l-16 39 35 -24 c69 -47 157 -57 211 -24 17 11 32 22 32 25 0 4 -25 17 -55
30 -30 14 -73 41 -96 62 -85 76 -154 182 -100 153 30 -15 102 -11 139 9 l34
17 -56 43 c-105 81 -156 164 -202 322 -28 99 -45 129 -75 129 -23 0 -32 -17
-58 -113 -39 -144 -110 -252 -211 -322 -33 -23 -38 -30 -29 -46 16 -31 67 -52
116 -46 23 2 43 1 43 -3 0 -15 -59 -88 -101 -124 -24 -21 -68 -51 -96 -68 -29
-16 -56 -34 -59 -39 -10 -16 16 -38 58 -50 58 -15 131 4 179 49 45 40 47 37
18 -20 -30 -59 -121 -151 -211 -215 -43 -30 -81 -59 -84 -65 -4 -5 3 -20 15
-32 19 -18 32 -21 94 -20 69 1 86 6 181 52 5 3 -2 -15 -15 -39 -33 -58 -180
-212 -235 -244 -24 -14 -44 -32 -44 -40 0 -7 14 -25 31 -39 29 -25 54 -30 124
-27 43 3 150 57 179 91 13 17 27 30 30 30 3 0 6 -94 6 -210 l0 -210 -205 0
c-203 0 -229 5 -185 32 33 21 23 40 -56 102 -111 88 -343 358 -426 498 -22 38
-44 71 -49 74 -17 10 -49 -7 -49 -27 0 -30 -24 -70 -107 -182 -104 -141 -213
-268 -305 -357 l-78 -75 35 -35 34 -35 -97 1 c-53 1 -492 2 -974 3 l-878 1 0
123 c0 67 3 132 6 143 6 21 7 21 56 -12 44 -30 58 -34 113 -34 96 0 97 12 10
102 -46 49 -84 100 -104 140 -16 34 -28 64 -26 66 2 2 14 -3 27 -12 38 -25
101 -30 136 -12 18 9 32 18 32 20 0 1 -26 23 -57 48 -63 48 -108 106 -122 156
-9 30 -9 31 12 18 30 -18 75 -28 81 -17 3 4 -4 17 -16 27 -28 25 -98 114 -98
124 0 4 17 6 38 3 25 -3 50 1 71 11 l32 17 -69 67 c-68 65 -71 70 -103 170
-33 101 -53 130 -83 119 -7 -3 -21 -34 -30 -69 -31 -108 -63 -164 -127 -220
-55 -49 -58 -53 -42 -70 11 -13 31 -18 65 -18 70 0 64 -24 -23 -101 l-72 -63
32 -9 c23 -5 41 -3 62 7 16 8 29 11 29 7 0 -23 -66 -104 -119 -146 -33 -26
-61 -52 -61 -56 0 -36 125 -53 168 -23 13 9 25 14 27 12 12 -12 -85 -145 -151
-207 -42 -40 -75 -73 -73 -75 20 -17 57 -26 107 -26 52 0 64 4 103 35 l44 35
3 -108 c2 -59 0 -122 -3 -139 l-6 -33 -268 0 -268 0 -7 53 c-3 28 -6 126 -6
217 l0 165 40 -47 c74 -85 176 -111 267 -67 56 27 53 43 -17 90 -96 63 -184
170 -220 265 l-10 26 33 -21 c52 -32 132 -46 181 -31 39 11 76 36 76 50 0 3
-24 16 -54 29 -95 39 -192 139 -228 234 -19 49 -19 51 -1 35 31 -28 106 -58
146 -58 39 0 100 21 111 38 3 5 -20 22 -52 37 -62 29 -112 72 -173 151 -50 65
-50 75 1 62 48 -13 101 -4 132 22 l23 19 -25 18 c-101 72 -172 183 -224 354
-22 74 -48 119 -69 119 -3 0 -12 -7 -21 -15z m3288 -1434 c59 -85 124 -170
163 -214 19 -22 33 -41 30 -43 -2 -2 -56 -1 -119 2 l-116 7 -6 51 c-8 68 -8
271 0 263 4 -4 25 -33 48 -66z m-167 -92 c-3 -83 -8 -153 -10 -155 -2 -3 -56
-3 -119 -2 l-115 3 71 93 c39 51 91 119 116 152 25 32 49 59 54 59 5 1 7 -63
3 -150z"/>
<path d="M3177 4513 c-12 -11 98 -207 202 -361 177 -263 366 -458 631 -653 51
-37 230 -144 311 -185 123 -62 380 -156 519 -190 470 -114 809 -103 1302 42
157 47 387 140 506 207 115 64 319 204 415 284 102 85 285 287 398 439 135
182 259 380 259 414 0 11 -4532 15 -4543 3z m1468 -223 c26 -21 19 -75 -12
-100 -25 -19 -36 -21 -93 -16 -69 6 -90 21 -90 61 0 49 50 77 132 71 26 -2 54
-9 63 -16z m2135 -1 c44 -7 80 -7 110 0 74 17 210 14 232 -6 24 -22 23 -75 -1
-98 -18 -15 -33 -16 -138 -11 -65 4 -240 6 -389 5 -265 -1 -272 -1 -293 20
-28 28 -28 75 1 95 19 13 51 15 218 10 107 -3 224 -10 260 -15z m-2575 -14
c31 -30 32 -69 3 -89 -18 -13 -52 -16 -160 -16 -125 0 -140 2 -158 20 -11 11
-20 27 -20 36 0 19 19 56 34 66 6 4 71 8 144 8 128 0 134 -1 157 -25z m907
-312 c28 -32 30 -58 7 -86 l-20 -27 -314 0 c-301 0 -315 1 -325 19 -14 27 -13
76 3 89 15 13 107 17 418 20 195 2 217 0 231 -15z m1108 10 c276 -6 305 -8
322 -25 24 -24 23 -44 -7 -73 l-24 -25 -439 0 c-429 0 -440 0 -466 21 -15 12
-26 30 -26 44 0 14 11 32 26 44 31 24 92 26 614 14z m-603 -323 c240 0 254 -1
273 -20 23 -23 26 -58 6 -86 -14 -18 -29 -19 -473 -16 -501 4 -493 3 -493 62
0 34 18 57 50 64 14 2 106 3 204 0 99 -2 293 -4 433 -4z"/>
</g>
</svg>
